<svg xmlns="http://www.w3.org/2000/svg" width="15.9" height="14.781" viewBox="0 0 15.9 14.781">
  <metadata><?xpacket begin="﻿" id="W5M0MpCehiHzreSzNTczkc9d"?>
<x:xmpmeta xmlns:x="adobe:ns:meta/" x:xmptk="Adobe XMP Core 5.6-c138 79.159824, 2016/09/14-01:09:01        ">
   <rdf:RDF xmlns:rdf="http://www.w3.org/1999/02/22-rdf-syntax-ns#">
      <rdf:Description rdf:about=""/>
   </rdf:RDF>
</x:xmpmeta>
                                                                                                    
                                                                                                    
                                                                                                    
                                                                                                    
                                                                                                    
                                                                                                    
                                                                                                    
                                                                                                    
                                                                                                    
                                                                                                    
                                                                                                    
                                                                                                    
                                                                                                    
                                                                                                    
                                                                                                    
                                                                                                    
                                                                                                    
                                                                                                    
                                                                                                    
                                                                                                    
                           
<?xpacket end="w"?></metadata>
<defs>
    <style>
      .cls-1 {
        fill: #9f9f9f;
        fill-rule: evenodd;
      }
    </style>
  </defs>
  <path id="log_out" data-name="log out" class="cls-1" d="M1093.15,43.976h-8.17V32.793h8.17a0.325,0.325,0,0,0,.33-0.316V31.315a0.325,0.325,0,0,0-.33-0.315h-9.7a0.325,0.325,0,0,0-.33.315V45.454a0.325,0.325,0,0,0,.33.316h9.7a0.325,0.325,0,0,0,.33-0.316V44.292A0.324,0.324,0,0,0,1093.15,43.976Zm5.78-5.815-4.42-4.247a0.342,0.342,0,0,0-.46,0L1093,34.922a0.3,0.3,0,0,0,0,.446l1.99,1.919h-8.63a0.324,0.324,0,0,0-.33.315v1.564a0.325,0.325,0,0,0,.33.316h8.63L1093,41.4a0.3,0.3,0,0,0,0,.446l1.05,1.008a0.322,0.322,0,0,0,.23.093,0.34,0.34,0,0,0,.23-0.093l4.42-4.247A0.322,0.322,0,0,0,1098.93,38.162Z" transform="translate(-1083.13 -31)"/>
</svg>
