<svg xmlns="http://www.w3.org/2000/svg" width="14" height="16" viewBox="0 0 14 16">
  <metadata><?xpacket begin="﻿" id="W5M0MpCehiHzreSzNTczkc9d"?>
<x:xmpmeta xmlns:x="adobe:ns:meta/" x:xmptk="Adobe XMP Core 5.6-c138 79.159824, 2016/09/14-01:09:01        ">
   <rdf:RDF xmlns:rdf="http://www.w3.org/1999/02/22-rdf-syntax-ns#">
      <rdf:Description rdf:about=""/>
   </rdf:RDF>
</x:xmpmeta>
                                                                                                    
                                                                                                    
                                                                                                    
                                                                                                    
                                                                                                    
                                                                                                    
                                                                                                    
                                                                                                    
                                                                                                    
                                                                                                    
                                                                                                    
                                                                                                    
                                                                                                    
                                                                                                    
                                                                                                    
                                                                                                    
                                                                                                    
                                                                                                    
                                                                                                    
                                                                                                    
                           
<?xpacket end="w"?></metadata>
<defs>
    <style>
      .cls-1 {
        fill: #9f9f9f;
        fill-rule: evenodd;
      }
    </style>
  </defs>
  <path class="cls-1" d="M1066,42.953V42.946a3.639,3.639,0,0,0-.3-2.126l-0.01-.019-0.01-.016-0.1-.114a3.9,3.9,0,0,0-.38-0.38,3.011,3.011,0,0,1-1.1-2.4,5.641,5.641,0,0,0-3.07-4.738V32.941a2,2,0,0,0-3.99,0v0.212a5.642,5.642,0,0,0-3.07,4.739,3.017,3.017,0,0,1-1.1,2.4,4.716,4.716,0,0,0-.39.385l-0.01.009V40.7l-0.07.1-0.01.009-0.01.01a3.7,3.7,0,0,0-.31,2.127,0.549,0.549,0,0,1,0,.129c0,0.057-.01.1-0.01,0.147v0.553l0.13,0.061,0.39,0.178a10.54,10.54,0,0,0,3.8,1.12,2.059,2.059,0,0,0,.61,1.08,2.933,2.933,0,0,0,2.04.785,2.612,2.612,0,0,0,2.66-1.868,10.44,10.44,0,0,0,3.77-1.106l0.42-.185,0.13-.059v-0.56a0.728,0.728,0,0,0-.01-0.142A0.53,0.53,0,0,1,1066,42.953Zm-12.02-1.195c0.04-.04.09-0.084,0.15-0.134l0.01-.01a4.7,4.7,0,0,0,1.68-3.578c0.14-1.686,1.2-3.5,3.22-3.5s3.08,1.814,3.22,3.5a4.665,4.665,0,0,0,1.69,3.586l0.01,0.009c0.05,0.046.09,0.088,0.13,0.127a2.183,2.183,0,0,1,.04.89,16.114,16.114,0,0,1-10.19,0A2.186,2.186,0,0,1,1053.98,41.758Zm4.11,3.283c0.31,0.011.63,0.017,0.94,0.017h-0.01Q1058.555,45.058,1058.09,45.041Z" transform="translate(-1052.03 -31)"/>
</svg>
